{"title":"UFC.154.HDTV.XviD.FreaK","uid":7837163,"size":1500764160,"categoryP":"video","categoryS":"tv_shows","magnet":"?xt=urn:btih:f165a18a41e276fcfe42feaf2552bb560ede5e26&amp;dn=UFC.154.HDTV.XviD.FreaK&amp;tr=udp%3A%2F%2Ftracker.openbittorrent.com%3A80&amp;tr=udp%3A%2F%2Fopen.demonii.com%3A1337&amp;tr=udp%3A%2F%2Ftracker.coppersurfer.tk%3A6969&amp;tr=udp%3A%2F%2Fexodus.desync.com%3A6969","seeders":3,"leechers":0,"uploader":"HeroMaster","files":-1,"time":1353230295,"description":"UFC.154.HDTV.XviD.FreaK\n\nVideo \nID                                      : 0 \nFormat                                  : MPEG-4 Visual \nFormat profile                          : Advanced Simple@L5 \nFormat settings, BVOP                    : 1 \nFormat settings, QPel                    : No \nFormat settings, GMC                    : No warppoints \nFormat settings, Matrix                  : Default (H.263) \nMuxing mode                              : Packed bitstream \nCodec ID                                : XVID \nCodec ID/Hint                            : XviD \nDuration                                : 2h 45mn \nBit rate                                : 1 068 Kbps \nWidth                                    : 624 pixels \nHeight                                  : 352 pixels \nDisplay aspect ratio                    : 16:9 \nFrame rate                              : 25.000 fps \nColor space                              : YUV \nChroma subsampling                      : 4:2:0 \nBit depth                                : 8 bits \nScan type                                : Progressive \nCompression mode                        : Lossy \nBits/(Pixel*Frame)                      : 0.195 \nStream size                              : 1.24 GiB (89%) \nWriting library                          : XviD 64 \n\nAudio \nID                                      : 1 \nFormat                                  : MPEG Audio \nFormat version                          : Version 1 \nFormat profile                          : Layer 3 \nMode                                    : Joint stereo \nMode extension                          : MS Stereo \nCodec ID                                : 55 \nCodec ID/Hint                            : MP3 \nDuration                                : 2h 45mn \nBit rate mode                            : Constant \nBit rate                                : 128 Kbps \nChannel(s)                              : 2 channels \nSampling rate                            : 48.0 KHz \nCompression mode                        : Lossy \nStream size                              : 152 MiB (11%) \nAlignment                                : Aligned on interleaves \nInterleave, duration                    : 40 ms (1.00 video frame) \nInterleave, preload duration            : 480 ms\n\n\nPoster:\n\n &lt;a href=&quot;\nhttp://imgon.net/di-ZIF4.jpg&quot; rel=&quot;nofollow&quot; target=&quot;_NEW&quot;&gt;\nhttp://imgon.net/di-ZIF4.jpg&lt;/a&gt;\n\n\nScreenshots:\n\n &lt;a href=&quot;\nhttp://imgon.net/di-ZXK9.jpg&quot; rel=&quot;nofollow&quot; target=&quot;_NEW&quot;&gt;\nhttp://imgon.net/di-ZXK9.jpg&lt;/a&gt;\n\n\nENJOY!","torrent":{"xt":"urn:btih:f165a18a41e276fcfe42feaf2552bb560ede5e26","amp;dn":"UFC.154.HDTV.XviD.FreaK","amp;tr":["udp%3A%2F%2Ftracker.openbittorrent.com%3A80","udp%3A%2F%2Fopen.demonii.com%3A1337","udp%3A%2F%2Ftracker.coppersurfer.tk%3A6969","udp%3A%2F%2Fexodus.desync.com%3A6969"],"infoHash":"f165a18a41e276fcfe42feaf2552bb560ede5e26","infoHashBuffer":{"type":"Buffer","data":[241,101,161,138,65,226,118,252,254,66,254,175,37,82,187,86,14,222,94,38]},"announce":[],"urlList":[]}}